<svg width="23" height="24" viewBox="0 0 23 24" fill="none" xmlns="http://www.w3.org/2000/svg">
<path d="M20.6562 10.5C20.9844 10.5 21.2891 10.5586 21.5703 10.6758C21.8516 10.793 22.1016 10.957 22.3203 11.168C22.5391 11.3789 22.7031 11.625 22.8125 11.9062C22.9219 12.1875 22.9844 12.4922 23 12.8203C23 13.125 22.9414 13.4219 22.8242 13.7109C22.707 14 22.5391 14.2539 22.3203 14.4727L13.918 22.8984L9.5 24L10.6016 19.582L19.0039 11.168C19.2227 10.9492 19.4766 10.7852 19.7656 10.6758C20.0547 10.5664 20.3516 10.5078 20.6562 10.5ZM21.2539 13.418C21.418 13.2539 21.5 13.0547 21.5 12.8203C21.5 12.5781 21.4219 12.3828 21.2656 12.2344C21.1094 12.0859 20.9062 12.0078 20.6562 12C20.5469 12 20.4414 12.0156 20.3398 12.0469C20.2383 12.0781 20.1484 12.1367 20.0703 12.2227L11.9609 20.3555L11.5625 21.9375L13.1445 21.5391L21.2539 13.418ZM2 22.5H7.94141L7.56641 24H0.5V0H13.5664L20 6.43359V8.70703C19.4766 8.78516 18.9766 8.95703 18.5 9.22266V7.5H12.5V1.5H2V22.5ZM14 6H17.4336L14 2.56641V6Z" fill="#0D6EFD"/>
</svg>
